   <svg
      width="40"
      height="40"
      viewBox="0 0 40 40"
      fill="none"
      xmlns="http://www.w3.org/2000/svg"
    >
      <path
        d="M17.36 24L13.52 13.2L17.6 0H18.32L24.56 19.68L23.12 24H17.36Z"
        fill="#1A1A1A"
      />
      <path d="M18.32 0H9.92L2 24H10.4L18.32 0Z" fill="#04B0A8" />
      <path d="M21.68 0H30.08L38 24H29.6L21.68 0Z" fill="#04B0A8" />
      <path
        d="M2.996 36V27.6H4.604L8.18 33.528H7.328L10.844 27.6H12.44L12.464 36H10.64L10.628 30.396H10.964L8.156 35.112H7.28L4.412 30.396H4.82V36H2.996ZM20.8169 36.144C20.1449 36.144 19.5009 36.056 18.8849 35.88C18.2689 35.696 17.7729 35.46 17.3969 35.172L18.0569 33.708C18.4169 33.964 18.8409 34.176 19.3289 34.344C19.8249 34.504 20.3249 34.584 20.8289 34.584C21.2129 34.584 21.5209 34.548 21.7529 34.476C21.9929 34.396 22.1689 34.288 22.2809 34.152C22.3929 34.016 22.4489 33.86 22.4489 33.684C22.4489 33.46 22.3609 33.284 22.1849 33.156C22.0089 33.02 21.7769 32.912 21.4889 32.832C21.2009 32.744 20.8809 32.664 20.5289 32.592C20.1849 32.512 19.8369 32.416 19.4849 32.304C19.1409 32.192 18.8249 32.048 18.5369 31.872C18.2489 31.696 18.0129 31.464 17.8289 31.176C17.6529 30.888 17.5649 30.52 17.5649 30.072C17.5649 29.592 17.6929 29.156 17.9489 28.764C18.2129 28.364 18.6049 28.048 19.1249 27.816C19.6529 27.576 20.3129 27.456 21.1049 27.456C21.6329 27.456 22.1529 27.52 22.6649 27.648C23.1769 27.768 23.6289 27.952 24.0209 28.2L23.4209 29.676C23.0289 29.452 22.6369 29.288 22.2449 29.184C21.8529 29.072 21.4689 29.016 21.0929 29.016C20.7169 29.016 20.4089 29.06 20.1689 29.148C19.9289 29.236 19.7569 29.352 19.6529 29.496C19.5489 29.632 19.4969 29.792 19.4969 29.976C19.4969 30.192 19.5849 30.368 19.7609 30.504C19.9369 30.632 20.1689 30.736 20.4569 30.816C20.7449 30.896 21.0609 30.976 21.4049 31.056C21.7569 31.136 22.1049 31.228 22.4489 31.332C22.8009 31.436 23.1209 31.576 23.4089 31.752C23.6969 31.928 23.9289 32.16 24.1049 32.448C24.2889 32.736 24.3809 33.1 24.3809 33.54C24.3809 34.012 24.2489 34.444 23.9849 34.836C23.7209 35.228 23.3249 35.544 22.7969 35.784C22.2769 36.024 21.6169 36.144 20.8169 36.144ZM33.3293 36.144C32.6813 36.144 32.0773 36.04 31.5173 35.832C30.9653 35.616 30.4853 35.312 30.0773 34.92C29.6693 34.528 29.3493 34.068 29.1173 33.54C28.8933 33.012 28.7813 32.432 28.7813 31.8C28.7813 31.168 28.8933 30.588 29.1173 30.06C29.3493 29.532 29.6693 29.072 30.0773 28.68C30.4933 28.288 30.9773 27.988 31.5293 27.78C32.0813 27.564 32.6853 27.456 33.3413 27.456C34.0693 27.456 34.7253 27.584 35.3093 27.84C35.9013 28.088 36.3973 28.456 36.7973 28.944L35.5493 30.096C35.2613 29.768 34.9413 29.524 34.5893 29.364C34.2373 29.196 33.8533 29.112 33.4373 29.112C33.0453 29.112 32.6853 29.176 32.3573 29.304C32.0293 29.432 31.7453 29.616 31.5053 29.856C31.2653 30.096 31.0773 30.38 30.9413 30.708C30.8133 31.036 30.7493 31.4 30.7493 31.8C30.7493 32.2 30.8133 32.564 30.9413 32.892C31.0773 33.22 31.2653 33.504 31.5053 33.744C31.7453 33.984 32.0293 34.168 32.3573 34.296C32.6853 34.424 33.0453 34.488 33.4373 34.488C33.8533 34.488 34.2373 34.408 34.5893 34.248C34.9413 34.08 35.2613 33.828 35.5493 33.492L36.7973 34.644C36.3973 35.132 35.9013 35.504 35.3093 35.76C34.7253 36.016 34.0653 36.144 33.3293 36.144Z"
        fill="#04B0A8"
      />
    </svg>